<svg xmlns="http://www.w3.org/2000/svg" viewBox="0 0 157.84 42.74"><defs><style>.cls-1{fill:#4b4f54;}.cls-2{fill:#00b74f;}</style></defs><title>Risorsa 1</title><g id="Livello_2" data-name="Livello 2"><g id="Livello_1-2" data-name="Livello 1"><path class="cls-1" d="M1.21,38.18a2.89,2.89,0,0,1,1.71-5.24,2.89,2.89,0,0,1,1.82.55,15.31,15.31,0,0,0,9.88,3.64c3.83,0,6.25-1.82,6.25-4.44v-.1c0-2.52-1.41-3.88-8-5.39-7.51-1.82-11.75-4-11.75-10.54v-.1c0-6,5-10.23,12.05-10.23A19.39,19.39,0,0,1,24.4,9.6a2.79,2.79,0,0,1,1.36,2.47,2.88,2.88,0,0,1-2.92,2.87,3,3,0,0,1-1.62-.45,14.71,14.71,0,0,0-8.12-2.67c-3.63,0-5.75,1.86-5.75,4.18v.1c0,2.72,1.61,3.93,8.42,5.55,7.46,1.81,11.3,4.48,11.3,10.33v.1c0,6.6-5.2,10.54-12.61,10.54A22,22,0,0,1,1.21,38.18"/><path class="cls-1" d="M80.05,9.37a3.1,3.1,0,0,1,6.2,0v30.3a3.1,3.1,0,0,1-6.2,0Z"/><path class="cls-1" d="M95.55,38.18a2.91,2.91,0,0,1-1.21-2.37,3,3,0,0,1,4.74-2.32A15.31,15.31,0,0,0,109,37.13c3.83,0,6.25-1.82,6.25-4.44v-.1c0-2.52-1.41-3.88-8-5.39-7.51-1.82-11.75-4-11.75-10.54v-.1c0-6,5-10.23,12.05-10.23A19.41,19.41,0,0,1,118.74,9.6a2.8,2.8,0,0,1,1.36,2.47,2.88,2.88,0,0,1-2.92,2.87,3,3,0,0,1-1.62-.45,14.7,14.7,0,0,0-8.12-2.67c-3.63,0-5.75,1.86-5.75,4.18v.1c0,2.72,1.61,3.93,8.42,5.55,7.46,1.81,11.3,4.48,11.3,10.33v.1c0,6.6-5.2,10.54-12.61,10.54a22,22,0,0,1-13.26-4.44"/><path class="cls-1" d="M138.73,28.13,126.58,11.44a3.82,3.82,0,0,1-.71-2.17,3,3,0,0,1,3.13-3,3.57,3.57,0,0,1,3,1.87l9.83,14.16,10-14.22a3.57,3.57,0,0,1,3-1.87,2.94,2.94,0,0,1,3,3,3.75,3.75,0,0,1-.86,2.22L144.94,28V39.67a3.1,3.1,0,0,1-6.21,0Z"/><path class="cls-1" d="M63,19.33a13.32,13.32,0,0,1,1,5.13v.11C64,31.43,59.13,37,52.12,37s-12-5.65-12-12.51v-.1c0-6.85,4.89-12.45,11.9-12.45a12,12,0,0,1,3.76.59c1.32-1.62,2.72-3.18,4.18-4.67a19.21,19.21,0,0,0-7.83-1.62A18.09,18.09,0,0,0,33.61,24.46v.11A17.91,17.91,0,0,0,52,42.72,18.09,18.09,0,0,0,70.52,24.46v-.1a18.34,18.34,0,0,0-3-10.13A55.62,55.62,0,0,0,63,19.33"/><path class="cls-2" d="M76.06,1.36A3,3,0,0,0,71.9.5,64.41,64.41,0,0,0,52.07,21.14a64.71,64.71,0,0,0-4.39-6.37,9.81,9.81,0,0,0-4.38,4.17,58.31,58.31,0,0,1,6,9.74,3,3,0,0,0,2.75,1.78,3,3,0,0,0,2-.77,3,3,0,0,0,.78-1.12,58.35,58.35,0,0,1,20.34-23,3,3,0,0,0,.86-4.17"/></g></g></svg>